# xmcd CD database file
#
# Track frame offsets:
#	150
#	21855
#	34965
#	58410
#	92352
#	105157
#	127295
#	142192
#	169609
#	184092
#	205502
#	226332
#	259945
#	276735
#	299095
#
# Disc length: 4311 seconds
#
# Revision: 2
# Processed by: cddbd v1.5.2PL0 Copyright (c) Steve Scherf et al.
# Submitted via: CDex 1.51
#
DISCID=e910d50f
DTITLE=Various Artist - Blues Story #4 - Le Blues Rock
DYEAR=1998
DGENRE=Blues
TTITLE0=George Thorogood - Bad To The Bone
TTITLE1=Dr. Feelgood - Dust My Broom
TTITLE2=The Allman Brother Band - Hot'lanta
TTITLE3=Rick Derringer, Steve Hunter and Pat Travers - Blues For Stevie
TTITLE4=Canned Heat - Goin' Up The Country
TTITLE5=Cream - White Room
TTITLE6=Gary Moore - Parisienne Walkways
TTITLE7=Roy Buchanan - Why Don't You Want Me
TTITLE8=Bo Diddley - You Can't Judge A Book By Its Cover
TTITLE9=Popa Chubby - Dance The Night Away
TTITLE10=Rory Gallagher - Tattoo'd Lady
TTITLE11=Status Quo - Roadhouse Blues
TTITLE12=Lynyrd Skynyrd - Crossroads (Live)
TTITLE13=Willy DeVille - Jump City
TTITLE14=Great White - South Bay Cities
EXTD=YEAR: 1998
EXTT0=
EXTT1=
EXTT2=
EXTT3=
EXTT4=
EXTT5=
EXTT6=
EXTT7=
EXTT8=
EXTT9=
EXTT10=
EXTT11=
EXTT12=
EXTT13=
EXTT14=
PLAYORDER=
